<mxfile host="app.diagrams.net" modified="2023-05-10T05:58:09.900Z" agent="Mozilla/5.0 (Macintosh; Intel Mac OS X 10_15_7) AppleWebKit/537.36 (KHTML, like Gecko) Chrome/113.0.0.0 Safari/537.36" etag="AWBUB-4JWoro4cYAEcBC" version="21.2.9" type="github">
  <diagram name="第 1 页" id="IfpNn29vA9uHxHAfNvu7">
    <mxGraphModel dx="984" dy="587" grid="1" gridSize="10" guides="1" tooltips="1" connect="1" arrows="1" fold="1" page="1" pageScale="1" pageWidth="827" pageHeight="1169" math="0" shadow="0">
      <root>
        <mxCell id="0" />
        <mxCell id="1" parent="0" />
        <mxCell id="78EI0Qdi8LBcMUlXU2q6-4" value="" style="edgeStyle=orthogonalEdgeStyle;rounded=0;orthogonalLoop=1;jettySize=auto;html=1;fontSize=15;" edge="1" parent="1" source="78EI0Qdi8LBcMUlXU2q6-1" target="78EI0Qdi8LBcMUlXU2q6-2">
          <mxGeometry relative="1" as="geometry" />
        </mxCell>
        <mxCell id="78EI0Qdi8LBcMUlXU2q6-1" value="源系统" style="rounded=1;whiteSpace=wrap;html=1;fontSize=15;" vertex="1" parent="1">
          <mxGeometry x="50" y="160" width="120" height="60" as="geometry" />
        </mxCell>
        <mxCell id="78EI0Qdi8LBcMUlXU2q6-5" value="" style="edgeStyle=orthogonalEdgeStyle;rounded=0;orthogonalLoop=1;jettySize=auto;html=1;fontSize=15;" edge="1" parent="1" source="78EI0Qdi8LBcMUlXU2q6-2" target="78EI0Qdi8LBcMUlXU2q6-3">
          <mxGeometry relative="1" as="geometry" />
        </mxCell>
        <mxCell id="78EI0Qdi8LBcMUlXU2q6-2" value="差错检测" style="rounded=1;whiteSpace=wrap;html=1;fontSize=15;" vertex="1" parent="1">
          <mxGeometry x="220" y="160" width="120" height="60" as="geometry" />
        </mxCell>
        <mxCell id="78EI0Qdi8LBcMUlXU2q6-7" style="edgeStyle=orthogonalEdgeStyle;rounded=0;orthogonalLoop=1;jettySize=auto;html=1;exitX=1;exitY=0.5;exitDx=0;exitDy=0;entryX=0;entryY=0.5;entryDx=0;entryDy=0;" edge="1" parent="1" source="78EI0Qdi8LBcMUlXU2q6-3" target="78EI0Qdi8LBcMUlXU2q6-6">
          <mxGeometry relative="1" as="geometry" />
        </mxCell>
        <mxCell id="78EI0Qdi8LBcMUlXU2q6-3" value="校本数据中心" style="rounded=1;whiteSpace=wrap;html=1;fontSize=15;" vertex="1" parent="1">
          <mxGeometry x="390" y="160" width="120" height="60" as="geometry" />
        </mxCell>
        <mxCell id="78EI0Qdi8LBcMUlXU2q6-6" value="教育部“职教大脑”" style="rounded=1;whiteSpace=wrap;html=1;fontSize=15;" vertex="1" parent="1">
          <mxGeometry x="600" y="60" width="140" height="70" as="geometry" />
        </mxCell>
      </root>
    </mxGraphModel>
  </diagram>
</mxfile>
